<svg width="32" height="32" viewBox="0 0 32 32" fill="none" xmlns="http://www.w3.org/2000/svg">
<path d="M15.9957 10.6644C13.0578 10.6644 10.6602 13.062 10.6602 16C10.6602 18.938 13.0578 21.3356 15.9957 21.3356C18.9336 21.3356 21.3312 18.938 21.3312 16C21.3312 13.062 18.9336 10.6644 15.9957 10.6644ZM31.9982 16C31.9982 13.7905 32.0182 11.601 31.8941 9.39554C31.7701 6.83381 31.1857 4.56027 29.3125 2.68701C27.4352 0.809737 25.1657 0.229345 22.604 0.105261C20.3946 -0.018823 18.2052 0.00119058 15.9997 0.00119058C13.7902 0.00119058 11.6008 -0.018823 9.39536 0.105261C6.83368 0.229345 4.56019 0.813739 2.68696 2.68701C0.809722 4.56427 0.22934 6.83381 0.105259 9.39554C-0.0188226 11.605 0.00119056 13.7945 0.00119056 16C0.00119056 18.2055 -0.0188226 20.399 0.105259 22.6045C0.22934 25.1662 0.813725 27.4397 2.68696 29.313C4.56419 31.1903 6.83368 31.7707 9.39536 31.8947C11.6048 32.0188 13.7943 31.9988 15.9997 31.9988C18.2092 31.9988 20.3986 32.0188 22.604 31.8947C25.1657 31.7707 27.4392 31.1863 29.3125 29.313C31.1897 27.4357 31.7701 25.1662 31.8941 22.6045C32.0222 20.399 31.9982 18.2095 31.9982 16ZM15.9957 24.2095C11.4527 24.2095 7.78631 20.5431 7.78631 16C7.78631 11.4569 11.4527 7.79045 15.9957 7.79045C20.5387 7.79045 24.2051 11.4569 24.2051 16C24.2051 20.5431 20.5387 24.2095 15.9957 24.2095ZM24.5413 9.37152C23.4806 9.37152 22.6241 8.51494 22.6241 7.45423C22.6241 6.39351 23.4806 5.53693 24.5413 5.53693C25.602 5.53693 26.4586 6.39351 26.4586 7.45423C26.4589 7.7061 26.4095 7.95556 26.3133 8.18832C26.217 8.42108 26.0758 8.63256 25.8977 8.81066C25.7196 8.98876 25.5082 9.12998 25.2754 9.22622C25.0426 9.32246 24.7932 9.37184 24.5413 9.37152Z" fill="#E1306C"/>
</svg>
